<svg xmlns="http://www.w3.org/2000/svg" width="72" height="69.6" viewBox="0 0 72 69.6"><defs><style>.ar{fill:none;stroke:#ef168c;}</style></defs><path class="ar" d="M67.2,8.533H4.8a4.807,4.807,0,0,0-4.8,4.8v39.6a1.2,1.2,0,0,0,1.2,1.2H70.8a1.2,1.2,0,0,0,1.2-1.2v-39.6A4.807,4.807,0,0,0,67.2,8.533Zm2.4,43.2H2.4v-38.4a2.4,2.4,0,0,1,2.4-2.4H67.2a2.4,2.4,0,0,1,2.4,2.4Z" transform="translate(0 -8.533)"/><g transform="translate(0 43.2)"><path class="ar" d="M70.8,315.733H1.2a1.2,1.2,0,0,0-1.2,1.2v6a4.807,4.807,0,0,0,4.8,4.8H67.2a4.807,4.807,0,0,0,4.8-4.8v-6A1.2,1.2,0,0,0,70.8,315.733Zm-1.2,7.2a2.4,2.4,0,0,1-2.4,2.4H4.8a2.4,2.4,0,0,1-2.4-2.4v-4.8H69.6v4.8Z" transform="translate(0 -315.733)"/></g><g transform="translate(31.2 48)"><path class="ar" d="M230.267,349.867h-7.2a1.2,1.2,0,0,0,0,2.4h7.2a1.2,1.2,0,0,0,0-2.4Z" transform="translate(-221.867 -349.867)"/></g><g transform="translate(4.8 4.8)"><path class="ar" d="M95.334,42.667h-60a1.2,1.2,0,0,0-1.2,1.2v38.4a1.2,1.2,0,0,0,1.2,1.2h60a1.2,1.2,0,0,0,1.2-1.2v-38.4A1.2,1.2,0,0,0,95.334,42.667Zm-1.2,38.4h-57.6v-36h57.6Z" transform="translate(-34.134 -42.667)"/></g><g transform="translate(16.8 62.4)"><path class="ar" d="M154.267,452.267h-31.2a3.6,3.6,0,0,0,0,7.2h31.2a3.6,3.6,0,1,0,0-7.2Zm0,4.8h-31.2a1.2,1.2,0,0,1,0-2.4h31.2a1.2,1.2,0,1,1,0,2.4Z" transform="translate(-119.467 -452.267)"/></g><g transform="translate(21.6 52.8)"><path class="ar" d="M181.2,393.6c-3.982,0-6-2.826-6-8.4A1.2,1.2,0,0,0,174,384H162a1.2,1.2,0,0,0-1.2,1.2c0,5.574-2.018,8.4-6,8.4a1.2,1.2,0,0,0,0,2.4h26.4a1.2,1.2,0,0,0,0-2.4Zm-20.555,0a11.5,11.5,0,0,0,2.522-7.2h9.666a11.482,11.482,0,0,0,2.522,7.2Z" transform="translate(-153.601 -384.001)"/></g><g transform="translate(42.008 25.2)"><path class="ar" d="M314.056,197.888l-2.9-2.9,1.612-1.612a1.2,1.2,0,0,0-.5-2l-12-3.6a1.2,1.2,0,0,0-1.494,1.494l3.6,12a1.2,1.2,0,0,0,2,.5l1.7-1.7,2.9,2.9a1.2,1.2,0,0,0,1.7,0l3.394-3.395A1.2,1.2,0,0,0,314.056,197.888Zm-4.242,2.546-2.638-2.639a1.569,1.569,0,0,0-2.215,0l-.866.866-2.382-7.94,7.94,2.382-.929.929a1.36,1.36,0,0,0,0,1.921l2.784,2.784Z" transform="translate(-298.723 -187.731)"/></g><g transform="translate(15.6 9.6)"><path class="ar" d="M145.734,76.8h-33.6a1.2,1.2,0,0,0-1.2,1.2v6a1.2,1.2,0,0,0,1.2,1.2h33.6a1.2,1.2,0,0,0,1.2-1.2V78A1.2,1.2,0,0,0,145.734,76.8Zm-1.2,6h-31.2V79.2h31.2Z" transform="translate(-110.934 -76.8)"/></g><g transform="translate(20.4 22.8)"><path class="ar" d="M155.867,170.667h-9.6a1.2,1.2,0,0,0-1.2,1.2v4.8a1.2,1.2,0,0,0,1.2,1.2h9.6a1.2,1.2,0,0,0,1.2-1.2v-4.8A1.2,1.2,0,0,0,155.867,170.667Zm-1.2,4.8h-7.2v-2.4h7.2Z" transform="translate(-145.067 -170.667)"/></g><g transform="translate(15.6 9.6)"><path class="ar" d="M145.734,76.8h-33.6a1.2,1.2,0,0,0-1.2,1.2v22.8a1.2,1.2,0,0,0,1.2,1.2H140.7a1.2,1.2,0,0,0,1.15-1.546l-1.519-5.065,5.058,1.518a1.2,1.2,0,0,0,1.544-1.15V78A1.2,1.2,0,0,0,145.734,76.8Zm-1.2,17.345-5.648-1.694a1.2,1.2,0,0,0-1.494,1.5l1.7,5.654H113.334V79.2h31.2Z" transform="translate(-110.934 -76.8)"/></g></svg>